<svg id="visual" viewBox="0 0 900 600" width="900" height="600" xmlns="http://www.w3.org/2000/svg" xmlns:xlink="http://www.w3.org/1999/xlink" version="1.1"><path d="M0 31L21.5 37C43 43 86 55 128.8 60C171.7 65 214.3 63 257.2 63C300 63 343 65 385.8 66C428.7 67 471.3 67 514.2 64C557 61 600 55 642.8 54C685.7 53 728.3 57 771.2 57C814 57 857 53 878.5 51L900 49L900 0L878.5 0C857 0 814 0 771.2 0C728.3 0 685.7 0 642.8 0C600 0 557 0 514.2 0C471.3 0 428.7 0 385.8 0C343 0 300 0 257.2 0C214.3 0 171.7 0 128.8 0C86 0 43 0 21.5 0L0 0Z" fill="#6198ff"></path><path d="M0 73L21.5 81C43 89 86 105 128.8 113C171.7 121 214.3 121 257.2 125C300 129 343 137 385.8 136C428.7 135 471.3 125 514.2 121C557 117 600 119 642.8 121C685.7 123 728.3 125 771.2 127C814 129 857 131 878.5 132L900 133L900 47L878.5 49C857 51 814 55 771.2 55C728.3 55 685.7 51 642.8 52C600 53 557 59 514.2 62C471.3 65 428.7 65 385.8 64C343 63 300 61 257.2 61C214.3 61 171.7 63 128.8 58C86 53 43 41 21.5 35L0 29Z" fill="#4c8aff"></path><path d="M0 241L21.5 249C43 257 86 273 128.8 283C171.7 293 214.3 297 257.2 297C300 297 343 293 385.8 291C428.7 289 471.3 289 514.2 294C557 299 600 309 642.8 300C685.7 291 728.3 263 771.2 258C814 253 857 271 878.5 280L900 289L900 131L878.5 130C857 129 814 127 771.2 125C728.3 123 685.7 121 642.8 119C600 117 557 115 514.2 119C471.3 123 428.7 133 385.8 134C343 135 300 127 257.2 123C214.3 119 171.7 119 128.8 111C86 103 43 87 21.5 79L0 71Z" fill="#367cff"></path><path d="M0 295L21.5 298C43 301 86 307 128.8 314C171.7 321 214.3 329 257.2 332C300 335 343 333 385.8 331C428.7 329 471.3 327 514.2 334C557 341 600 357 642.8 350C685.7 343 728.3 313 771.2 306C814 299 857 315 878.5 323L900 331L900 287L878.5 278C857 269 814 251 771.2 256C728.3 261 685.7 289 642.8 298C600 307 557 297 514.2 292C471.3 287 428.7 287 385.8 289C343 291 300 295 257.2 295C214.3 295 171.7 291 128.8 281C86 271 43 255 21.5 247L0 239Z" fill="#196eff"></path><path d="M0 325L21.5 332C43 339 86 353 128.8 360C171.7 367 214.3 367 257.2 365C300 363 343 359 385.8 359C428.7 359 471.3 363 514.2 372C557 381 600 395 642.8 386C685.7 377 728.3 345 771.2 340C814 335 857 357 878.5 368L900 379L900 329L878.5 321C857 313 814 297 771.2 304C728.3 311 685.7 341 642.8 348C600 355 557 339 514.2 332C471.3 325 428.7 327 385.8 329C343 331 300 333 257.2 330C214.3 327 171.7 319 128.8 312C86 305 43 299 21.5 296L0 293Z" fill="#0062f5"></path><path d="M0 373L21.5 383C43 393 86 413 128.8 420C171.7 427 214.3 421 257.2 415C300 409 343 403 385.8 401C428.7 399 471.3 401 514.2 409C557 417 600 431 642.8 425C685.7 419 728.3 393 771.2 387C814 381 857 395 878.5 402L900 409L900 377L878.5 366C857 355 814 333 771.2 338C728.3 343 685.7 375 642.8 384C600 393 557 379 514.2 370C471.3 361 428.7 357 385.8 357C343 357 300 361 257.2 363C214.3 365 171.7 365 128.8 358C86 351 43 337 21.5 330L0 323Z" fill="#005be1"></path><path d="M0 529L21.5 528C43 527 86 525 128.8 527C171.7 529 214.3 535 257.2 536C300 537 343 533 385.8 526C428.7 519 471.3 509 514.2 513C557 517 600 535 642.8 543C685.7 551 728.3 549 771.2 543C814 537 857 527 878.5 522L900 517L900 407L878.5 400C857 393 814 379 771.2 385C728.3 391 685.7 417 642.8 423C600 429 557 415 514.2 407C471.3 399 428.7 397 385.8 399C343 401 300 407 257.2 413C214.3 419 171.7 425 128.8 418C86 411 43 391 21.5 381L0 371Z" fill="#0053ce"></path><path d="M0 601L21.5 601C43 601 86 601 128.8 601C171.7 601 214.3 601 257.2 601C300 601 343 601 385.8 601C428.7 601 471.3 601 514.2 601C557 601 600 601 642.8 601C685.7 601 728.3 601 771.2 601C814 601 857 601 878.5 601L900 601L900 515L878.5 520C857 525 814 535 771.2 541C728.3 547 685.7 549 642.8 541C600 533 557 515 514.2 511C471.3 507 428.7 517 385.8 524C343 531 300 535 257.2 534C214.3 533 171.7 527 128.8 525C86 523 43 525 21.5 526L0 527Z" fill="#004cbb"></path></svg>